<svg width="680" height="480" viewBox="0 0 680 480" xmlns="http://www.w3.org/2000/svg">
<title>Dark Crawler live dashboard screenshot</title>
<defs>
  <clipPath id="screen"><rect width="680" height="480" rx="6"/></clipPath>
</defs>

<rect width="680" height="480" fill="#080b0f" rx="6"/>

<!-- ── HEADER ── -->
<rect width="680" height="50" fill="#0d1117"/>
<rect width="680" height="1" y="50" fill="#1c2333"/>
<!-- Logo -->
<text x="24" y="32" font-family="'Courier New',monospace" font-size="15" font-weight="bold" fill="#00ff9d" letter-spacing="2">ONION/CRAWLER</text>
<text x="196" y="32" font-family="'Courier New',monospace" font-size="15" fill="#00ff9d" opacity="0.7">█</text>
<!-- Header stats -->
<text x="440" y="22" font-family="'Courier New',monospace" font-size="18" font-weight="bold" fill="#00c8ff">6,842</text>
<text x="440" y="38" font-family="'Courier New',monospace" font-size="9" fill="#3a5060" letter-spacing="1">SITES FOUND</text>
<text x="560" y="22" font-family="'Courier New',monospace" font-size="18" font-weight="bold" fill="#00c8ff">14</text>
<text x="560" y="38" font-family="'Courier New',monospace" font-size="9" fill="#3a5060" letter-spacing="1">CATEGORIES</text>

<!-- ── STATUS BAR ── -->
<rect width="680" height="36" y="50" fill="#0a0d12"/>
<rect width="680" height="1" y="86" fill="#1c2333"/>
<!-- Pulsing dot -->
<circle cx="24" cy="68" r="5" fill="#00ff9d" opacity="0.9"/>
<text x="38" y="72" font-family="'Courier New',monospace" font-size="11" fill="#b8ccd8">Crawling…</text>
<!-- +new badge -->
<rect x="118" y="58" width="52" height="18" rx="2" fill="#00ff9d"/>
<text x="144" y="71" text-anchor="middle" font-family="'Courier New',monospace" font-size="9" font-weight="bold" fill="#000">+47 new</text>
<!-- Buttons -->
<rect x="488" y="58" width="80" height="22" rx="2" fill="none" stroke="#00ff9d" stroke-width="1" opacity="0.4"/>
<text x="528" y="73" text-anchor="middle" font-family="'Courier New',monospace" font-size="10" fill="#00ff9d" opacity="0.5">▶ Start</text>
<rect x="582" y="58" width="70" height="22" rx="2" fill="none" stroke="#3a5060" stroke-width="1"/>
<text x="617" y="73" text-anchor="middle" font-family="'Courier New',monospace" font-size="10" fill="#3a5060">■ Stop</text>

<!-- ── LAYOUT ── -->
<!-- Sidebar -->
<rect x="0" y="87" width="190" height="393" fill="#0a0d12"/>
<rect x="190" y="87" width="1" height="393" fill="#1c2333"/>

<!-- Sidebar title -->
<text x="16" y="108" font-family="'Courier New',monospace" font-size="9" fill="#3a5060" letter-spacing="2">CATEGORIES</text>

<!-- Category items -->
<!-- All Sites (active) -->
<rect x="0" y="114" width="190" height="30" fill="rgba(0,255,157,0.06)"/>
<rect x="0" y="114" width="2" height="30" fill="#00ff9d"/>
<text x="18" y="133" font-family="monospace" font-size="11" fill="#00ff9d">🌐</text>
<text x="38" y="133" font-family="'Courier New',monospace" font-size="11" fill="#00ff9d">All Sites</text>
<text x="172" y="133" text-anchor="end" font-family="'Courier New',monospace" font-size="11" fill="#00c8ff">6,842</text>

<!-- Markets -->
<rect x="0" y="145" width="190" height="26" fill="none"/>
<text x="18" y="162" font-family="monospace" font-size="10" fill="#5a7080">🛒</text>
<text x="38" y="162" font-family="'Courier New',monospace" font-size="10" fill="#b8ccd8">Markets &amp; Commerce</text>
<text x="172" y="162" text-anchor="end" font-family="'Courier New',monospace" font-size="10" fill="#00c8ff">1,612</text>

<!-- News -->
<rect x="0" y="172" width="190" height="26" fill="none"/>
<text x="18" y="189" font-family="monospace" font-size="10" fill="#5a7080">📰</text>
<text x="38" y="189" font-family="'Courier New',monospace" font-size="10" fill="#b8ccd8">News &amp; Media</text>
<text x="172" y="189" text-anchor="end" font-family="'Courier New',monospace" font-size="10" fill="#00c8ff">1,108</text>

<!-- Forums -->
<rect x="0" y="198" width="190" height="26" fill="none"/>
<text x="18" y="215" font-family="monospace" font-size="10" fill="#5a7080">💬</text>
<text x="38" y="215" font-family="'Courier New',monospace" font-size="10" fill="#b8ccd8">Forums &amp; Communities</text>
<text x="172" y="215" text-anchor="end" font-family="'Courier New',monospace" font-size="10" fill="#00c8ff">798</text>

<!-- Privacy -->
<rect x="0" y="224" width="190" height="26" fill="none"/>
<text x="18" y="241" font-family="monospace" font-size="10" fill="#5a7080">🔒</text>
<text x="38" y="241" font-family="'Courier New',monospace" font-size="10" fill="#b8ccd8">Privacy &amp; Anonymity</text>
<text x="172" y="241" text-anchor="end" font-family="'Courier New',monospace" font-size="10" fill="#00c8ff">531</text>

<!-- Search -->
<rect x="0" y="250" width="190" height="26" fill="none"/>
<text x="18" y="267" font-family="monospace" font-size="10" fill="#5a7080">🔍</text>
<text x="38" y="267" font-family="'Courier New',monospace" font-size="10" fill="#b8ccd8">Search Engines</text>
<text x="172" y="267" text-anchor="end" font-family="'Courier New',monospace" font-size="10" fill="#00c8ff">480</text>

<!-- Tech -->
<rect x="0" y="276" width="190" height="26" fill="none"/>
<text x="18" y="293" font-family="monospace" font-size="10" fill="#5a7080">⚙️</text>
<text x="38" y="293" font-family="'Courier New',monospace" font-size="10" fill="#b8ccd8">Technology &amp; Security</text>
<text x="172" y="293" text-anchor="end" font-family="'Courier New',monospace" font-size="10" fill="#00c8ff">274</text>

<!-- Email -->
<rect x="0" y="302" width="190" height="26" fill="none"/>
<text x="18" y="319" font-family="monospace" font-size="10" fill="#5a7080">✉️</text>
<text x="38" y="319" font-family="'Courier New',monospace" font-size="10" fill="#b8ccd8">Email &amp; Comms</text>
<text x="172" y="319" text-anchor="end" font-family="'Courier New',monospace" font-size="10" fill="#00c8ff">312</text>

<!-- Libraries -->
<rect x="0" y="328" width="190" height="26" fill="none"/>
<text x="18" y="345" font-family="monospace" font-size="10" fill="#5a7080">📚</text>
<text x="38" y="345" font-family="'Courier New',monospace" font-size="10" fill="#b8ccd8">Libraries &amp; Archives</text>
<text x="172" y="345" text-anchor="end" font-family="'Courier New',monospace" font-size="10" fill="#00c8ff">168</text>

<!-- ── MAIN PANEL ── -->
<!-- Toolbar -->
<rect x="191" y="87" width="489" height="40" fill="#0a0d12"/>
<rect x="191" y="127" width="489" height="1" fill="#1c2333"/>
<!-- Search box -->
<rect x="203" y="97" width="230" height="22" rx="2" fill="#0d1117" stroke="#1c2333" stroke-width="1"/>
<text x="218" y="112" font-family="'Courier New',monospace" font-size="10" fill="#00ff9d" opacity="0.5">⌕</text>
<text x="232" y="112" font-family="'Courier New',monospace" font-size="10" fill="#3a5060">privacy tools</text>
<!-- Live indicator -->
<text x="442" y="112" font-family="'Courier New',monospace" font-size="9" fill="#00ff9d">● LIVE</text>
<!-- Sort select -->
<rect x="478" y="97" width="100" height="22" rx="2" fill="#0d1117" stroke="#1c2333" stroke-width="1"/>
<text x="528" y="112" text-anchor="middle" font-family="'Courier New',monospace" font-size="9" fill="#5a7080">Newest first</text>
<!-- Count -->
<text x="658" y="112" text-anchor="end" font-family="'Courier New',monospace" font-size="9" fill="#3a5060">showing <tspan fill="#00ff9d">515</tspan> / 6,842</text>

<!-- Table header -->
<rect x="191" y="128" width="489" height="24" fill="rgba(0,0,0,0.3)"/>
<rect x="191" y="152" width="489" height="1" fill="#1c2333"/>
<text x="203" y="144" font-family="'Courier New',monospace" font-size="9" fill="#3a5060" letter-spacing="1">URL</text>
<text x="403" y="144" font-family="'Courier New',monospace" font-size="9" fill="#3a5060" letter-spacing="1">TITLE</text>
<text x="513" y="144" font-family="'Courier New',monospace" font-size="9" fill="#3a5060" letter-spacing="1">CATEGORY</text>
<text x="614" y="144" font-family="'Courier New',monospace" font-size="9" fill="#3a5060" letter-spacing="1">STATUS</text>

<!-- Table rows -->
<!-- Row 1 (new - highlighted) -->
<rect x="191" y="153" width="489" height="30" fill="rgba(0,255,157,0.07)"/>
<rect x="191" y="183" width="489" height="1" fill="#1c2333" opacity="0.5"/>
<text x="203" y="172" font-family="'Courier New',monospace" font-size="9" fill="#00c8ff">http://duckduckgogg42ts...onion/</text>
<text x="403" y="172" font-family="'Courier New',monospace" font-size="9" fill="#b8ccd8">DuckDuckGo Search</text>
<text x="513" y="172" font-family="'Courier New',monospace" font-size="9" fill="#5a7080">🔍 Search Engines</text>
<text x="622" y="172" font-family="'Courier New',monospace" font-size="9" fill="#00ff9d">200</text>

<!-- Row 2 -->
<rect x="191" y="184" width="489" height="30" fill="transparent"/>
<rect x="191" y="214" width="489" height="1" fill="#1c2333" opacity="0.5"/>
<text x="203" y="203" font-family="'Courier New',monospace" font-size="9" fill="#00c8ff">http://secmailw453j7rko...onion/</text>
<text x="403" y="203" font-family="'Courier New',monospace" font-size="9" fill="#b8ccd8">SecMail - Secure Mail</text>
<text x="513" y="203" font-family="'Courier New',monospace" font-size="9" fill="#5a7080">✉️ Email &amp; Comms</text>
<text x="622" y="203" font-family="'Courier New',monospace" font-size="9" fill="#00ff9d">200</text>

<!-- Row 3 (new) -->
<rect x="191" y="215" width="489" height="30" fill="rgba(0,255,157,0.04)"/>
<rect x="191" y="245" width="489" height="1" fill="#1c2333" opacity="0.5"/>
<text x="203" y="234" font-family="'Courier New',monospace" font-size="9" fill="#00c8ff">http://protonmailrmez3l...onion/</text>
<text x="403" y="234" font-family="'Courier New',monospace" font-size="9" fill="#b8ccd8">Proton Mail</text>
<text x="513" y="234" font-family="'Courier New',monospace" font-size="9" fill="#5a7080">✉️ Email &amp; Comms</text>
<text x="622" y="234" font-family="'Courier New',monospace" font-size="9" fill="#00ff9d">200</text>

<!-- Row 4 -->
<rect x="191" y="246" width="489" height="30" fill="transparent"/>
<rect x="191" y="276" width="489" height="1" fill="#1c2333" opacity="0.5"/>
<text x="203" y="265" font-family="'Courier New',monospace" font-size="9" fill="#00c8ff">http://darkzzx4avcsuofg...onion/</text>
<text x="403" y="265" font-family="'Courier New',monospace" font-size="9" fill="#b8ccd8">Dark.Fail - Status Page</text>
<text x="513" y="265" font-family="'Courier New',monospace" font-size="9" fill="#5a7080">🔍 Search Engines</text>
<text x="622" y="265" font-family="'Courier New',monospace" font-size="9" fill="#00ff9d">200</text>

<!-- Row 5 -->
<rect x="191" y="277" width="489" height="30" fill="transparent"/>
<rect x="191" y="307" width="489" height="1" fill="#1c2333" opacity="0.5"/>
<text x="203" y="296" font-family="'Courier New',monospace" font-size="9" fill="#00c8ff">http://torbox3uiot6wchz...onion/</text>
<text x="403" y="296" font-family="'Courier New',monospace" font-size="9" fill="#b8ccd8">TorBox - Onion Mail</text>
<text x="513" y="296" font-family="'Courier New',monospace" font-size="9" fill="#5a7080">✉️ Email &amp; Comms</text>
<text x="622" y="296" font-family="'Courier New',monospace" font-size="9" fill="#00ff9d">200</text>

<!-- Row 6 -->
<rect x="191" y="308" width="489" height="30" fill="transparent"/>
<rect x="191" y="338" width="489" height="1" fill="#1c2333" opacity="0.5"/>
<text x="203" y="327" font-family="'Courier New',monospace" font-size="9" fill="#00c8ff">http://keybase5wmilwok...onion/</text>
<text x="403" y="327" font-family="'Courier New',monospace" font-size="9" fill="#b8ccd8">Keybase PGP</text>
<text x="513" y="327" font-family="'Courier New',monospace" font-size="9" fill="#5a7080">🔒 Privacy</text>
<text x="622" y="327" font-family="'Courier New',monospace" font-size="9" fill="#00ff9d">200</text>

<!-- Row 7 -->
<rect x="191" y="339" width="489" height="30" fill="transparent"/>
<rect x="191" y="369" width="489" height="1" fill="#1c2333" opacity="0.5"/>
<text x="203" y="358" font-family="'Courier New',monospace" font-size="9" fill="#00c8ff">http://www.facebookwkhp...onion/</text>
<text x="403" y="358" font-family="'Courier New',monospace" font-size="9" fill="#b8ccd8">Facebook Onion</text>
<text x="513" y="358" font-family="'Courier New',monospace" font-size="9" fill="#5a7080">💬 Forums</text>
<text x="622" y="358" font-family="'Courier New',monospace" font-size="9" fill="#00ff9d">200</text>

<!-- ── PAGINATION ── -->
<rect x="191" y="370" width="489" height="36" fill="#0a0d12"/>
<rect x="191" y="370" width="489" height="1" fill="#1c2333"/>
<rect x="302" y="379" width="40" height="18" rx="2" fill="none" stroke="#3a5060" stroke-width="0.8"/>
<text x="322" y="392" text-anchor="middle" font-family="'Courier New',monospace" font-size="9" fill="#3a5060">← prev</text>
<rect x="350" y="379" width="22" height="18" rx="2" fill="rgba(0,255,157,0.07)" stroke="#00ff9d" stroke-width="0.8"/>
<text x="361" y="392" text-anchor="middle" font-family="'Courier New',monospace" font-size="9" fill="#00ff9d">1</text>
<rect x="380" y="379" width="22" height="18" rx="2" fill="none" stroke="#3a5060" stroke-width="0.8"/>
<text x="391" y="392" text-anchor="middle" font-family="'Courier New',monospace" font-size="9" fill="#3a5060">2</text>
<rect x="410" y="379" width="22" height="18" rx="2" fill="none" stroke="#3a5060" stroke-width="0.8"/>
<text x="421" y="392" text-anchor="middle" font-family="'Courier New',monospace" font-size="9" fill="#3a5060">3</text>
<rect x="440" y="379" width="46" height="18" rx="2" fill="none" stroke="#3a5060" stroke-width="0.8"/>
<text x="463" y="392" text-anchor="middle" font-family="'Courier New',monospace" font-size="9" fill="#3a5060">next →</text>
<text x="500" y="392" font-family="'Courier New',monospace" font-size="9" fill="#3a5060">page 1 of 11</text>

<!-- ── LOG PANEL ── -->
<rect x="191" y="406" width="489" height="74" fill="rgba(0,0,0,0.35)"/>
<rect x="191" y="406" width="489" height="1" fill="#1c2333"/>
<text x="203" y="420" font-family="'Courier New',monospace" font-size="9" fill="#00ff9d">[11:42:31] +12 new sites found (total: 6,842)</text>
<text x="203" y="434" font-family="'Courier New',monospace" font-size="9" fill="#00ff9d">[11:42:29] +8 new sites found (total: 6,830)</text>
<text x="203" y="448" font-family="'Courier New',monospace" font-size="9" fill="#00c8ff">[11:42:27] Loaded 6,822 sites from previous crawl.</text>
<text x="203" y="462" font-family="'Courier New',monospace" font-size="9" fill="#3a5060">[11:42:25] Crawl started — searching multiple sources…</text>
</svg>
